<svg width="68" height="68" viewBox="0 0 68 68" fill="none" xmlns="http://www.w3.org/2000/svg">
<rect width="68" height="68" rx="14" fill="black"/>
<path d="M22.4653 13.8484C21.555 13.8484 20.9653 14.7312 20.9653 15.8736V34.4642C20.9653 40.2802 23.5515 48.7446 35.4481 50.3544C46.4136 51.8382 51.9998 43.344 51.9998 37.4241V19.9241C51.9998 17.5353 51.2239 16.8083 50.3446 16.5487C49.9667 16.4371 48.4308 15.8736 46.0515 15.5101C44.1481 15.2193 43.8619 16.8256 43.8791 17.3276C43.8791 23.4379 44.086 35.2016 44.086 35.8662C44.086 36.6971 43.8791 44.3826 35.7067 42.6689C29.1688 41.298 28.7757 35.8662 28.7757 32.9063V17.0161C28.7757 15.022 28.2067 14.4715 27.2757 14.2638C26.3446 14.0561 23.3757 13.8484 22.4653 13.8484Z" stroke="white" stroke-width="1.09091"/>
<path d="M17.5 18.6259C16.5897 18.6259 16 19.5086 16 20.6511V39.2416C16 45.0577 18.5862 53.5221 30.4828 55.1319C41.4483 56.6157 47.0345 48.1215 47.0345 42.2016V24.7015C47.0345 22.3128 46.2586 21.5858 45.3793 21.3262C45.0014 21.2146 43.4655 20.6511 41.0862 20.2876C39.1828 19.9968 38.8965 21.6031 38.9138 22.1051C38.9138 28.2154 39.1207 39.979 39.1207 40.6437C39.1207 41.4746 38.9138 49.1601 30.7414 47.4464C24.2034 46.0755 23.8103 40.6437 23.8103 37.6838V21.7935C23.8103 19.7994 23.2414 19.249 22.3103 19.0413C21.3793 18.8336 18.4103 18.6259 17.5 18.6259Z" stroke="white" stroke-width="1.09091"/>
<path d="M16.6206 18.9375L21.4827 14.2639" stroke="white" stroke-width="1.09091"/>
<path d="M39.5859 20.5991L44.5515 15.8217" stroke="white" stroke-width="1.09091"/>
<mask id="mask0_4224_3084" style="mask-type:alpha" maskUnits="userSpaceOnUse" x="16" y="18" width="32" height="38">
<path d="M17.5 18.6259C16.5897 18.6259 16 19.5086 16 20.6511V39.2416C16 45.0577 18.5862 53.5221 30.4828 55.1319C41.4483 56.6157 47.0345 48.1215 47.0345 42.2016V24.7015C47.0345 22.3128 46.2586 21.5858 45.3793 21.3262C45.0014 21.2146 43.4655 20.6511 41.0862 20.2876C39.1828 19.9968 38.8965 21.6031 38.9138 22.1051C38.9138 28.2154 39.1207 39.979 39.1207 40.6437C39.1207 41.4746 38.9138 49.1601 30.7414 47.4464C24.2034 46.0755 23.8103 40.6437 23.8103 37.6838V21.7935C23.8103 19.7994 23.2414 19.249 22.3103 19.0413C21.3793 18.8336 18.4103 18.6259 17.5 18.6259Z" fill="white"/>
</mask>
<g mask="url(#mask0_4224_3084)">
<path d="M21.0432 25.0601C15.1161 21.2851 9.48409 23.5808 7.40894 25.2005L-6.00091 35.9393L16.3673 56.6736L38.0231 62.1993L51.7548 51.4849C58.1705 41.2189 67.3195 23.0089 52.5893 32.297C37.8592 41.5851 32.9373 37.0284 30.9466 34.069C19.1554 29.4332 26.9702 28.8351 21.0432 25.0601Z" fill="white"/>
</g>
</svg>
