<svg width="115" height="131" viewBox="0 0 115 131" fill="none" xmlns="http://www.w3.org/2000/svg">
<path fill-rule="evenodd" clip-rule="evenodd" d="M17.9651 2.03615L17.9173 1.98596L2.65576 16.5295L2.70732 16.5836C2.42561 16.8335 2.16894 17.1194 1.93948 17.436C1.05615 18.6546 0.576172 20.3228 0.576172 22.169V80.0199C0.576172 89.1252 2.61716 100.33 9.3806 109.897C16.1537 119.478 27.63 127.37 46.4035 129.888C69.0486 132.926 84.463 122.629 92.4436 109.929C107.031 101.792 114.424 86.4017 114.424 74.3641V19.9067C114.424 16.1516 113.81 13.6408 112.801 11.9528C111.782 10.2472 110.384 9.42366 108.924 8.99617C108.761 8.94863 108.528 8.87361 108.225 8.7766C106.354 8.17555 101.854 6.73067 95.3924 5.75198C93.8394 5.51677 92.5851 5.66085 91.5791 6.05927C90.6118 6.44239 89.8977 7.05137 89.3788 7.7393L75.0141 21.4409C74.488 21.796 74.0656 22.2277 73.7293 22.6919C72.6964 24.118 72.4724 25.8542 72.5 26.7009C72.5001 36.2111 72.6625 50.115 72.8248 61.8989C72.9067 67.85 72.9887 73.2583 73.0497 77.2885L73.0497 77.2903C73.1097 81.2452 73.1495 83.8727 73.1495 84.383C73.1495 85.1409 73.0916 87.7512 72.3518 90.9052C69.6858 91.1851 66.5749 91.0249 62.9439 90.2701C52.8105 88.1635 47.4811 82.9553 44.6654 77.1642C41.8364 71.3458 41.5259 64.9004 41.5259 60.3054V10.8574C41.5259 7.72838 41.0784 5.65093 40.202 4.26411C39.3088 2.85057 38.0112 2.21647 36.4851 1.87893C34.9903 1.54832 31.9003 1.22347 28.8532 0.981489C25.7989 0.738938 22.7408 0.576172 21.2944 0.576172C19.9569 0.576172 18.8216 1.12431 17.9651 2.03615ZM18.212 3.06691C17.4555 4.11057 17.0101 5.59345 17.0101 7.30234V16.1914C18.6298 16.3642 20.0326 16.554 20.8992 16.7456C22.4253 17.0832 23.7229 17.7173 24.6161 19.1308C25.4924 20.5176 25.9399 22.5951 25.9399 25.7241V75.1721C25.9399 79.7671 26.2504 86.2125 29.0794 92.0309C31.8952 97.822 37.2246 103.03 47.358 105.137C53.709 106.457 58.4689 105.958 62.04 104.466C65.6091 102.975 68.0309 100.475 69.6783 97.7192C70.8426 95.7715 71.6173 93.7005 72.1324 91.7788C69.4374 92.0256 66.337 91.8415 62.7714 91.1003C52.3829 88.9407 46.8344 83.5644 43.9028 77.535C40.9844 71.5327 40.6779 64.9212 40.6779 60.3054V10.8574C40.6779 7.78123 40.2325 5.89961 39.4852 4.71707C38.7549 3.56125 37.6983 3.01572 36.302 2.70688C34.8744 2.39111 31.8436 2.06959 28.7861 1.82678C25.7358 1.58455 22.7055 1.42413 21.2944 1.42413C20.018 1.42413 18.9623 2.03177 18.212 3.06691ZM16.1621 7.30234V16.1044C15.2289 16.0122 14.2459 15.9259 13.2673 15.8482C10.213 15.6056 7.15488 15.4429 5.70848 15.4429C5.45251 15.4429 5.20393 15.4629 4.96331 15.5018L16.6019 4.41075C16.3132 5.2866 16.1621 6.26645 16.1621 7.30234ZM90.9132 7.44757L90.0162 8.30315L90.002 8.32266C89.1086 9.55598 88.9088 11.0941 88.9337 11.8123L88.9339 11.8196V11.827C88.9339 14.9928 88.9519 18.6467 88.9819 22.548C90.6248 22.9964 91.8601 23.393 92.6395 23.6433C92.9416 23.7403 93.1753 23.8153 93.3377 23.8629C94.798 24.2904 96.1957 25.1139 97.2152 26.8195C98.2241 28.5075 98.8379 31.0183 98.8379 34.7734V89.2308C98.8379 95.2303 97.0016 102.063 93.3535 108.415C106.789 100.263 113.576 85.7517 113.576 74.3641V19.9067C113.576 16.2285 112.972 13.8915 112.073 12.3879C111.185 10.902 109.985 10.1905 108.685 9.80997C108.516 9.76032 108.275 9.68309 107.966 9.58389C106.081 8.97905 101.65 7.55745 95.2654 6.59037C93.831 6.37312 92.7325 6.51452 91.8914 6.84765C91.5091 6.99905 91.1746 7.19215 90.8821 7.41504L90.9132 7.44757ZM77.1117 20.6119L88.3415 9.90051C88.1281 10.6769 88.0712 11.3823 88.086 11.8342C88.086 14.9375 88.1033 18.5087 88.1322 22.3213C85.937 21.7493 83.1315 21.1223 79.8065 20.6187C78.7834 20.4637 77.8899 20.4734 77.1117 20.6119ZM75.327 22.3143L75.296 22.2819C74.9461 22.5485 74.6562 22.8578 74.416 23.1894C73.5227 24.4227 73.3228 25.9608 73.3477 26.679L73.348 26.6863V26.6937C73.348 36.1976 73.5103 50.1001 73.6726 61.8872C73.7429 66.9898 73.8132 71.6975 73.8704 75.4796C78.1113 75.1092 82.9844 74.0571 88.5933 72.0919C88.7191 70.8421 88.7354 69.9184 88.7354 69.5163C88.7354 69.0059 88.6956 66.3784 88.6357 62.4233L88.6357 62.4218C88.5746 58.3916 88.4927 52.9833 88.4107 47.0322C88.3054 39.3874 88.2001 30.8505 88.1391 23.1997C85.9352 22.6181 83.0854 21.9729 79.6795 21.4571C78.2451 21.2398 77.1466 21.3812 76.3054 21.7143C76.0275 21.8244 75.7748 21.9566 75.5452 22.1062L75.327 22.3143ZM25.092 46.1938V25.7241C25.092 22.6479 24.6465 20.7663 23.8993 19.5838C23.1689 18.428 22.1124 17.8824 20.7161 17.5736C19.9033 17.3938 18.5711 17.2122 17.0101 17.0443V36.004C23.8836 40.3863 24.7361 43.3879 25.092 46.1938ZM97.99 68.2368C94.9808 69.6372 92.146 70.8095 89.4748 71.7777C89.5705 70.688 89.5833 69.8861 89.5833 69.5163C89.5833 69.0006 89.5433 66.3537 89.483 62.376C89.422 58.3459 89.3403 52.9498 89.2586 47.0205C89.1544 39.4541 89.0502 31.016 88.9889 23.4293C90.4925 23.845 91.635 24.2116 92.38 24.4506C92.689 24.5498 92.9299 24.627 93.0994 24.6767C94.3992 25.0572 95.5992 25.7687 96.4873 27.2546C97.3861 28.7582 97.99 31.0952 97.99 34.7734V68.2368ZM1.42413 29.9689V22.169C1.42413 20.4602 1.86957 18.9773 2.62605 17.9336C3.37635 16.8985 4.43204 16.2908 5.70848 16.2908C7.11955 16.2908 10.1498 16.4512 13.2001 16.6935C14.2093 16.7736 15.2155 16.8623 16.1621 16.9566V35.4758C11.1028 32.3995 6.12126 30.7051 1.42413 29.9689Z" fill="white"/>
</svg>
