<svg width="24" height="24" viewBox="0 0 24 24" fill="none" xmlns="http://www.w3.org/2000/svg">
<path d="M8.795 17.0856C8.3416 17.7469 7.85602 18.3855 7.34 18.9991C3.65 18.8941 2.25 16.4991 2.25 16.4991C2.30193 13.1056 3.1243 9.76827 4.655 6.73914C6.00009 5.68686 7.63906 5.0788 9.345 4.99914L9.845 6.15414C10.5592 6.05545 11.2791 6.00367 12 5.99914C12.7242 6.00158 13.4474 6.05168 14.165 6.14914L14.665 4.99414C16.3726 5.07811 18.0117 5.69148 19.355 6.74914C20.8808 9.77606 21.6997 13.1098 21.75 16.4991C21.75 16.4991 20.35 18.8941 16.66 18.9991C16.1514 18.3887 15.6742 17.7529 15.23 17.0941M18.46 15.6441C16.54 16.6166 14.6825 17.5891 12 17.5891C9.3175 17.5891 7.46 16.6166 5.54 15.6441" stroke="white" stroke-linecap="round" stroke-linejoin="round"/>
<path d="M8.92305 14.7895C9.84812 14.7895 10.598 14.0395 10.598 13.1145C10.598 12.1894 9.84812 11.4395 8.92305 11.4395C7.99797 11.4395 7.24805 12.1894 7.24805 13.1145C7.24805 14.0395 7.99797 14.7895 8.92305 14.7895Z" stroke="white" stroke-linecap="round" stroke-linejoin="round"/>
<path d="M15.0764 14.7895C16.0014 14.7895 16.7514 14.0395 16.7514 13.1145C16.7514 12.1894 16.0014 11.4395 15.0764 11.4395C14.1513 11.4395 13.4014 12.1894 13.4014 13.1145C13.4014 14.0395 14.1513 14.7895 15.0764 14.7895Z" stroke="white" stroke-linecap="round" stroke-linejoin="round"/>
</svg>
