<svg width="35" height="40" viewBox="0 0 35 40" fill="none" xmlns="http://www.w3.org/2000/svg">
<path fill-rule="evenodd" clip-rule="evenodd" d="M1.2377 5.32023L1.22266 5.30458L5.67955 1.02045L5.6933 1.03474C6.0056 0.707015 6.42731 0.500061 6.92676 0.500061C7.36501 0.500061 8.27055 0.549068 9.16431 0.620661C10.0495 0.691566 10.9785 0.788764 11.4451 0.892871C11.9494 1.00539 12.4351 1.2322 12.7675 1.76281C13.0798 2.26126 13.2112 2.9591 13.2112 3.90375V18.4698C13.2112 19.8144 13.3037 21.6403 14.091 23.2735C14.8627 24.8746 16.3225 26.333 19.1673 26.9295C20.0725 27.1193 20.8536 27.1756 21.528 27.1333C21.6799 26.3691 21.694 25.7555 21.694 25.5625C21.694 25.4144 21.6825 24.6479 21.6651 23.4914C21.6473 22.3043 21.6232 20.7064 21.5992 18.9444C21.5518 15.4756 21.5044 11.3807 21.5043 8.57649C21.4957 8.27023 21.5724 7.67459 21.9336 7.17157C22.0493 7.01054 22.1946 6.8586 22.3745 6.73111L26.5283 2.73464C26.7145 2.49416 26.9704 2.27879 27.3125 2.14214C27.68 1.99531 28.1162 1.95162 28.623 2.02904C30.5446 2.32263 31.8898 2.75887 32.4301 2.93407C32.5151 2.96164 32.5801 2.98274 32.6244 2.99581C33.123 3.14305 33.6185 3.43606 33.9738 4.03562C34.3166 4.61398 34.5 5.42979 34.5 6.56944V22.6112C34.5 25.4654 33.1609 28.8967 30.5309 31.4419C29.7823 32.1664 28.9296 32.8186 27.9744 33.3655C27.4233 34.2365 26.7578 35.0677 25.9792 35.8213C23.3329 38.3823 19.3871 40.0395 14.2088 39.3388C8.63387 38.5844 5.18366 36.2105 3.13904 33.2932C1.10594 30.3922 0.5 27.0082 0.5 24.2773V7.23591C0.5 6.63221 0.65505 6.05944 0.968529 5.6232C1.04826 5.51225 1.13826 5.4105 1.2377 5.32023ZM6.33237 1.82735C6.16697 2.05753 6.05176 2.41299 6.05176 2.85652V5.14048C6.39308 5.18197 6.688 5.22645 6.89336 5.27227C7.39769 5.38478 7.88335 5.6116 8.21575 6.14221C8.528 6.64065 8.65948 7.33849 8.65948 8.28315V22.8492C8.65948 24.1938 8.75196 26.0197 9.5392 27.6529C10.311 29.254 11.7708 30.7124 14.6155 31.3089C16.4145 31.6862 17.7234 31.5359 18.6793 31.133C19.6332 30.731 20.2839 30.0573 20.7326 29.3002C20.9554 28.9243 21.1267 28.5306 21.2583 28.145C20.5674 28.1586 19.8043 28.0849 18.9621 27.9083C15.8138 27.2481 14.0968 25.5887 13.1901 23.7077C12.2989 21.8588 12.2112 19.8385 12.2112 18.4698V3.90375C12.2112 3.02051 12.082 2.55212 11.9201 2.2937C11.7783 2.06744 11.5765 1.94677 11.2274 1.86888C10.8406 1.78258 9.98206 1.68937 9.08446 1.61747C8.19546 1.54626 7.32299 1.50006 6.92676 1.50006C6.691 1.50006 6.49051 1.60727 6.33237 1.82735ZM5.05176 3.01098V5.03719C4.90568 5.02416 4.75852 5.01175 4.61255 5.00006C4.0727 4.95681 3.52854 4.92181 3.08566 4.90087L5.05176 3.01098ZM22.9673 7.54851L22.9606 7.54155C22.8742 7.60124 22.804 7.67387 22.7459 7.75485C22.5474 8.03125 22.4986 8.39478 22.504 8.55159L22.5043 8.56017V8.56876C22.5043 11.3655 22.5517 15.4584 22.5991 18.9307C22.6194 20.4171 22.6397 21.7916 22.6563 22.901C23.7017 22.7783 24.8731 22.5161 26.1871 22.077C26.2392 21.6409 26.2457 21.3145 26.2457 21.1831C26.2457 21.035 26.2342 20.2685 26.2168 19.112C26.199 17.925 26.175 16.327 26.1509 14.565C26.1215 12.4085 26.092 10.0101 26.0739 7.83018C25.4854 7.68174 24.7629 7.52572 23.9202 7.39697C23.5545 7.34111 23.3036 7.38152 23.1317 7.45018C23.0855 7.46865 23.0427 7.49006 23.0031 7.51402L22.9673 7.54851ZM7.65948 13.1289V8.28315C7.65948 7.3999 7.53019 6.93151 7.3683 6.67309C7.22657 6.44683 7.02473 6.32616 6.67561 6.24827C6.52819 6.21538 6.31226 6.18149 6.05176 6.14815V11.5625C6.91269 12.1611 7.3879 12.6701 7.65948 13.1289ZM28.9483 20.9801C28.3506 21.2521 27.777 21.4925 27.2265 21.7036C27.2433 21.4571 27.2457 21.2756 27.2457 21.1831C27.2457 21.0294 27.234 20.2454 27.2163 19.0697L27.2162 19.0634L27.2162 19.0609C27.1984 17.8737 27.1746 16.289 27.1509 14.5513C27.1227 12.489 27.0945 10.2076 27.0763 8.10899C27.277 8.17007 27.442 8.22343 27.5697 8.26472C27.6629 8.29484 27.7367 8.31869 27.7894 8.33427C28.0968 8.42503 28.36 8.58424 28.5618 8.92481C28.7762 9.28657 28.9483 9.89881 28.9483 10.9488V20.9801ZM1.5 9.59968V7.23591C1.5 6.79239 1.61521 6.43692 1.78061 6.20675C1.93875 5.98667 2.13924 5.87946 2.375 5.87946C2.77123 5.87946 3.64371 5.92565 4.53271 5.99686C4.7083 6.01093 4.8824 6.02581 5.05176 6.04129V10.9334C3.83768 10.2428 2.6425 9.82156 1.5 9.59968ZM26.0564 4.5764L24.141 6.41921C24.8721 6.53302 25.5181 6.66707 26.0661 6.79863C26.0608 6.00813 26.0573 5.25918 26.0564 4.5764ZM27.0558 4.1722C27.0505 4.01921 27.0968 3.66945 27.2834 3.39581L27.519 3.16917L27.5123 3.16219C27.5634 3.12687 27.6201 3.09608 27.6835 3.07078C27.8553 3.00212 28.1063 2.96171 28.4719 3.01757C30.3025 3.29724 31.5655 3.70558 32.1215 3.88533C32.2149 3.9155 32.2884 3.93928 32.3412 3.95487C32.6486 4.04564 32.9117 4.20485 33.1135 4.54542C33.3279 4.90718 33.5 5.51942 33.5 6.56944V22.6112C33.5 25.1835 32.2788 28.3587 29.8355 30.7233C29.5607 30.9893 29.2702 31.2451 28.9642 31.4887C29.6183 29.9664 29.9483 28.4074 29.9483 26.9905V10.9488C29.9483 9.80919 29.7648 8.99338 29.4221 8.41501C29.0668 7.81545 28.5713 7.52244 28.0726 7.3752C28.0285 7.36216 27.9636 7.34112 27.8788 7.31363C27.697 7.25467 27.4235 7.16597 27.068 7.06325C27.0605 6.02065 27.0561 5.04442 27.0561 4.18936V4.18078L27.0558 4.1722Z" fill="white"/>
</svg>
