<svg width="89" height="102" viewBox="0 0 89 102" fill="none" xmlns="http://www.w3.org/2000/svg">
<path fill-rule="evenodd" clip-rule="evenodd" d="M2.19369 12.957L2.15381 12.9154L13.9038 1.64136L13.9408 1.67988C14.6287 0.946136 15.5445 0.5 16.625 0.5C17.746 0.5 20.1062 0.626668 22.4586 0.814759C24.8024 1.00216 27.1938 1.25469 28.3587 1.51409C29.5611 1.78186 30.6093 2.29197 31.3298 3.43998C32.0301 4.55596 32.375 6.20537 32.375 8.6413V46.973C32.375 50.5311 32.6149 55.4945 34.7752 59.9682C36.9201 64.4098 40.9789 68.412 48.7274 70.0339C51.452 70.6041 53.7884 70.7332 55.7928 70.536C56.3317 68.1646 56.375 66.212 56.375 65.6378C56.375 65.2431 56.3444 63.2091 56.2983 60.1463L56.2983 60.1424C56.2513 57.0187 56.1882 52.8258 56.125 48.2106C56.0001 39.0769 55.8751 28.2991 55.875 20.9256C55.8535 20.2435 56.031 18.8594 56.8535 17.7161C57.1208 17.3446 57.4568 16.9979 57.875 16.7117L68.9125 6.11151C69.3279 5.56051 69.8999 5.07123 70.673 4.76294C71.4818 4.44043 72.4799 4.32815 73.7004 4.51426C78.6913 5.27538 82.1701 6.40035 83.6083 6.86545C83.8394 6.94018 84.0178 6.99788 84.1414 7.03429C85.2993 7.37559 86.4156 8.03733 87.2268 9.40385C88.0255 10.7493 88.5 12.7302 88.5 15.6563V57.8713C88.5 65.1527 85.0658 73.9736 78.2849 80.5241C76.3146 82.4274 74.0624 84.1385 71.5309 85.5648C70.092 87.8642 68.3425 90.0609 66.2849 92.0486C59.4877 98.6149 49.3351 102.893 35.9331 101.083C21.436 99.1247 12.5547 92.9842 7.30954 85.5138C2.07583 78.0597 0.5 69.336 0.5 62.2556V17.41C0.5 15.9517 0.876263 14.6216 1.58171 13.6417C1.76421 13.3882 1.96879 13.1584 2.19369 12.957ZM14.3933 2.70138C13.8362 3.47518 13.5 4.58775 13.5 5.88542V12.6226C14.6858 12.7525 15.7115 12.8945 16.3587 13.0386C17.5611 13.3064 18.6093 13.8165 19.3298 14.9645C20.0301 16.0805 20.375 17.7299 20.375 20.1658V58.4976C20.375 62.0556 20.6149 67.019 22.7752 71.4927C24.9201 75.9343 28.9789 79.9366 36.7274 81.5584C41.5912 82.5764 45.2181 82.1883 47.9272 81.0487C50.6342 79.9099 52.4728 78.0007 53.7263 75.8893C54.5668 74.4737 55.1412 72.9722 55.5336 71.5628C53.4976 71.7228 51.1737 71.5676 48.5226 71.0127C40.4711 69.3274 36.1549 65.1247 33.8747 60.403C31.6101 55.7134 31.375 50.5552 31.375 46.973V8.6413C31.375 6.26697 31.0324 4.84733 30.4827 3.97156C29.9532 3.12782 29.1889 2.72349 28.1413 2.49018C27.0562 2.24852 24.7351 1.99997 22.3789 1.81158C20.0313 1.62387 17.704 1.5 16.625 1.5C15.7061 1.5 14.9431 1.93766 14.3933 2.70138ZM12.5 5.88542V12.5194C11.8368 12.4548 11.1457 12.3942 10.4586 12.3393C8.10623 12.1512 5.74597 12.0245 4.625 12.0245C4.59162 12.0245 4.5584 12.025 4.52533 12.0258L12.6797 4.20173C12.5609 4.73257 12.5 5.29863 12.5 5.88542ZM58.3465 17.6454L58.3231 17.621C58.0612 17.8193 57.8446 18.0508 57.6653 18.3001C57.006 19.2165 56.8564 20.3682 56.8747 20.9002L56.875 20.9088V20.9174C56.875 28.2835 57 39.0595 57.125 48.1969C57.179 52.1457 57.233 55.7902 57.277 58.7203C60.4555 58.4242 64.0918 57.6294 68.2583 56.1734C68.3617 55.1724 68.375 54.4314 68.375 54.1133C68.375 53.7186 68.3444 51.6846 68.2983 48.6218C68.2513 45.4977 68.1882 41.3032 68.125 36.6861C68.0446 30.8034 67.9641 24.2386 67.9169 18.3407C66.243 17.9 64.1 17.4163 61.5496 17.0274C60.47 16.8627 59.6568 16.9718 59.0434 17.2163C58.8466 17.2948 58.6672 17.3885 58.5036 17.4945L58.3465 17.6454ZM19.375 34.9947V20.1658C19.375 17.7915 19.0324 16.3719 18.4827 15.4961C17.9532 14.6524 17.1889 14.248 16.1413 14.0147C15.5569 13.8846 14.6139 13.7524 13.5 13.6287V28.2468C17.8181 31.0536 18.96 33.1266 19.375 34.9947ZM75.5 53.2026C73.315 54.2211 71.2499 55.0817 69.2977 55.8003C69.3658 54.9893 69.375 54.3929 69.375 54.1133C69.375 53.7127 69.3441 51.6591 69.2977 48.574L69.2977 48.5701L69.2967 48.5077L69.2966 48.4992L69.296 48.4615C69.2492 45.3493 69.1871 41.2119 69.125 36.6724C69.0458 30.8828 68.9666 24.4353 68.9192 18.6143C69.9627 18.9094 70.7637 19.1681 71.3003 19.3414C71.5397 19.4188 71.7265 19.4791 71.8586 19.518C72.8257 19.8031 73.7094 20.3314 74.3669 21.4389C75.037 22.5675 75.5 24.3446 75.5 27.1808V53.2026ZM1.5 23.4843V17.41C1.5 16.1123 1.83624 14.9997 2.39329 14.2259C2.94308 13.4622 3.70609 13.0245 4.625 13.0245C5.70403 13.0245 8.03127 13.1484 10.3789 13.3361C11.1007 13.3938 11.8193 13.4572 12.5 13.5243V27.6197C8.72661 25.3392 5.01165 24.0605 1.5 23.4843ZM67.9526 8.41981L60.0939 15.9672C60.5806 15.9289 61.1149 15.9495 61.7004 16.0388C64.1574 16.4135 66.2479 16.8764 67.909 17.3053C67.8877 14.4345 67.875 11.7457 67.875 9.40107C67.8672 9.15217 67.8858 8.80982 67.9526 8.41981ZM69.6653 6.77556L69.6665 6.77381L70.3465 6.12079L70.3231 6.09646C70.5328 5.93774 70.7714 5.80026 71.0434 5.69181C71.6568 5.44723 72.47 5.3382 73.5496 5.50283C78.4496 6.25008 81.8463 7.34723 83.3003 7.81687C83.5397 7.89422 83.7265 7.95455 83.8586 7.99349C84.8257 8.27853 85.7094 8.80683 86.3669 9.91434C87.037 11.043 87.5 12.82 87.5 15.6563V57.8713C87.5 64.8703 84.1842 73.4349 77.5901 79.8049C76.0908 81.2533 74.4215 82.5886 72.5826 83.7661C75.1873 78.9878 76.5 73.8976 76.5 69.3958V27.1808C76.5 24.2547 76.0255 22.2738 75.2268 20.9284C74.4156 19.5619 73.2993 18.9001 72.1414 18.5588C72.0178 18.5224 71.8394 18.4647 71.6083 18.39C71.0289 18.2026 70.1183 17.9081 68.911 17.5735C68.8885 14.5981 68.875 11.8117 68.875 9.3929V9.3843L68.8747 9.3757C68.8564 8.84369 69.006 7.69201 69.6653 6.77556Z" fill="white"/>
</svg>
