<svg width="32" height="35" viewBox="0 0 32 35" fill="none" xmlns="http://www.w3.org/2000/svg">
<path fill-rule="evenodd" clip-rule="evenodd" d="M0.3085 25.735C0.494254 25.5306 0.810478 25.5156 1.01481 25.7013L4.90079 29.234C11.1942 34.9554 20.8056 34.9554 27.099 29.234L30.985 25.7013C31.1893 25.5156 31.5055 25.5306 31.6913 25.735C31.8771 25.9393 31.862 26.2555 31.6577 26.4413L27.7717 29.974C21.0968 36.042 10.903 36.042 4.22812 29.974L0.342134 26.4413C0.137805 26.2555 0.122747 25.9393 0.3085 25.735Z" fill="white"/>
<path fill-rule="evenodd" clip-rule="evenodd" d="M3.09041 13.204C3.27387 12.9976 3.58991 12.979 3.7963 13.1624L9.02401 17.8093C13.0023 21.3456 18.9973 21.3456 22.9757 17.8093L28.2034 13.1624C28.4098 12.979 28.7258 12.9976 28.9093 13.204C29.0927 13.4103 29.0741 13.7264 28.8677 13.9098L23.64 18.5567C19.2828 22.4298 12.7168 22.4298 8.35965 18.5567L3.13193 13.9098C2.92554 13.7264 2.90695 13.4103 3.09041 13.204Z" fill="white"/>
<path fill-rule="evenodd" clip-rule="evenodd" d="M7.28927 0.646447C7.48453 0.451184 7.80111 0.451184 7.99638 0.646447L11.4038 4.05384C13.9422 6.59225 18.0578 6.59225 20.5962 4.05384L24.0036 0.646447C24.1988 0.451184 24.5154 0.451184 24.7107 0.646447C24.9059 0.841709 24.9059 1.15829 24.7107 1.35355L21.3033 4.76095C18.3743 7.68988 13.6256 7.68988 10.6967 4.76095L7.28927 1.35355C7.09401 1.15829 7.09401 0.841709 7.28927 0.646447Z" fill="white"/>
</svg>
