<svg width="34" height="40" viewBox="0 0 34 40" fill="none" xmlns="http://www.w3.org/2000/svg">
<path fill-rule="evenodd" clip-rule="evenodd" d="M0.7377 5.32017L0.722656 5.30452L5.17955 1.02039L5.1933 1.03468C5.5056 0.706954 5.92731 0.5 6.42676 0.5C6.86501 0.5 7.77055 0.549007 8.66431 0.6206C9.54947 0.691505 10.4785 0.788703 10.9451 0.89281C11.4494 1.00533 11.9351 1.23214 12.2675 1.76275C12.5798 2.26119 12.7112 2.95904 12.7112 3.90369V18.4698C12.7112 19.8144 12.8037 21.6402 13.591 23.2734C14.3627 24.8745 15.8225 26.333 18.6673 26.9295C19.5725 27.1193 20.3536 27.1755 21.028 27.1333C21.1799 26.369 21.194 25.7555 21.194 25.5624C21.194 25.4143 21.1825 24.6478 21.1651 23.4914C21.1472 22.3043 21.1232 20.7063 21.0992 18.9443C21.0518 15.4755 21.0044 11.3806 21.0043 8.57643C20.9957 8.27017 21.0724 7.67453 21.4336 7.17151C21.5493 7.01048 21.6946 6.85854 21.8745 6.73105L26.0283 2.73458C26.2145 2.4941 26.4704 2.27873 26.8125 2.14208C27.18 1.99525 27.6162 1.95156 28.123 2.02898C30.0446 2.32257 31.3898 2.75881 31.93 2.93401C32.0151 2.96157 32.0801 2.98268 32.1244 2.99575C32.623 3.14299 33.1185 3.436 33.4738 4.03555C33.8166 4.61392 34 5.42973 34 6.56938V22.6111C34 25.4653 32.6609 28.8966 30.0309 31.4418C29.2823 32.1663 28.4296 32.8185 27.4744 33.3655C26.9233 34.2364 26.2578 35.0676 25.4792 35.8212C22.8329 38.3822 18.8871 40.0395 13.7088 39.3387C8.13387 38.5844 4.68366 36.2104 2.63904 33.2931C0.605938 30.3922 0 27.0081 0 24.2772V7.23585C0 6.63215 0.15505 6.05938 0.468529 5.62314C0.548258 5.51219 0.638261 5.41044 0.7377 5.32017ZM5.83237 1.82729C5.66697 2.05747 5.55176 2.41293 5.55176 2.85646V5.14042C5.89308 5.18191 6.18799 5.22639 6.39336 5.2722C6.89768 5.38472 7.38335 5.61154 7.71575 6.14215C8.028 6.64059 8.15948 7.33843 8.15948 8.28309V22.8492C8.15948 24.1938 8.25196 26.0196 9.0392 27.6528C9.81097 29.2539 11.2708 30.7124 14.1155 31.3089C15.9145 31.6861 17.2234 31.5358 18.1793 31.1329C19.1332 30.7309 19.7839 30.0572 20.2326 29.3001C20.4554 28.9242 20.6267 28.5305 20.7583 28.1449C20.0674 28.1586 19.3043 28.0848 18.4621 27.9082C15.3138 27.248 13.5968 25.5886 12.6901 23.7076C11.7989 21.8588 11.7112 19.8384 11.7112 18.4698V3.90369C11.7112 3.02045 11.5819 2.55205 11.4201 2.29363C11.2783 2.06738 11.0765 1.9467 10.7274 1.86881C10.3406 1.78252 9.48206 1.68931 8.58446 1.61741C7.69546 1.5462 6.82299 1.5 6.42676 1.5C6.191 1.5 5.99051 1.60721 5.83237 1.82729ZM4.55176 3.01092V5.03713C4.40568 5.02409 4.25852 5.01169 4.11255 4.99999C3.5727 4.95675 3.02854 4.92175 2.58566 4.90081L4.55176 3.01092ZM22.4673 7.54845L22.4606 7.54149C22.3742 7.60117 22.304 7.67381 22.2459 7.75479C22.0474 8.03119 21.9986 8.39472 22.004 8.55153L22.0043 8.56011V8.5687C22.0043 11.3654 22.0517 15.4584 22.0991 18.9307C22.1194 20.4171 22.1397 21.7915 22.1563 22.901C23.2017 22.7782 24.3731 22.516 25.6871 22.0769C25.7392 21.6408 25.7457 21.3145 25.7457 21.183C25.7457 21.0349 25.7342 20.2684 25.7168 19.112C25.699 17.9249 25.675 16.3269 25.6509 14.5649C25.6215 12.4085 25.592 10.01 25.5739 7.83011C24.9854 7.68168 24.2629 7.52566 23.4202 7.39691C23.0545 7.34105 22.8036 7.38146 22.6317 7.45012C22.5855 7.46859 22.5427 7.49 22.5031 7.51396L22.4673 7.54845ZM7.15948 13.1288V8.28309C7.15948 7.39984 7.03019 6.93145 6.8683 6.67303C6.72657 6.44677 6.52473 6.3261 6.17561 6.24821C6.02819 6.21532 5.81225 6.18143 5.55176 6.14809V11.5625C6.41269 12.161 6.88789 12.67 7.15948 13.1288ZM28.4483 20.98C27.8506 21.2521 27.277 21.4925 26.7265 21.7035C26.7433 21.4571 26.7457 21.2755 26.7457 21.183C26.7457 21.0293 26.734 20.2453 26.7163 19.0696L26.7162 19.0634L26.7162 19.0608C26.6984 17.8736 26.6746 16.289 26.6508 14.5513C26.6227 12.4889 26.5945 10.2076 26.5763 8.10893C26.777 8.17001 26.942 8.22337 27.0697 8.26466C27.1629 8.29478 27.2367 8.31863 27.2894 8.3342C27.5968 8.42497 27.86 8.58418 28.0618 8.92475C28.2761 9.28651 28.4483 9.89875 28.4483 10.9488V20.98ZM1 9.59962V7.23585C1 6.79232 1.11521 6.43686 1.28061 6.20669C1.43875 5.98661 1.63924 5.87939 1.875 5.87939C2.27123 5.87939 3.1437 5.92559 4.03271 5.9968C4.2083 6.01087 4.3824 6.02575 4.55176 6.04123V10.9333C3.33768 10.2428 2.1425 9.8215 1 9.59962ZM25.5564 4.57634L23.641 6.41914C24.3721 6.53296 25.0181 6.66701 25.5661 6.79857C25.5608 6.00807 25.5573 5.25911 25.5564 4.57634ZM26.5558 4.17214C26.5505 4.01915 26.5968 3.66939 26.7834 3.39575L27.019 3.16911L27.0123 3.16213C27.0634 3.12681 27.1201 3.09602 27.1835 3.07072C27.3553 3.00206 27.6063 2.96165 27.9719 3.01751C29.8025 3.29717 31.0655 3.70551 31.6215 3.88526C31.7148 3.91544 31.7884 3.93922 31.8412 3.95481C32.1486 4.04558 32.4117 4.20478 32.6135 4.54536C32.8279 4.90712 33 5.51936 33 6.56938V22.6111C33 25.1834 31.7788 28.3586 29.3355 30.7232C29.0607 30.9892 28.7702 31.245 28.4642 31.4886C29.1183 29.9664 29.4483 28.4073 29.4483 26.9905V10.9488C29.4483 9.80912 29.2648 8.99332 28.9221 8.41495C28.5668 7.81539 28.0713 7.52238 27.5726 7.37514C27.5285 7.3621 27.4636 7.34105 27.3788 7.31357C27.197 7.25461 26.9235 7.1659 26.568 7.06319C26.5605 6.02059 26.5561 5.04436 26.5561 4.1893V4.18072L26.5558 4.17214Z" fill="white"/>
</svg>
