<svg width="84" height="450" viewBox="0 0 84 450" fill="none" xmlns="http://www.w3.org/2000/svg">
<path fill-rule="evenodd" clip-rule="evenodd" d="M82.0001 72.7185V58.0885L63.4101 51.5985L63.4101 21.5685L82.0001 15.0785V0.228516L1.59009 29.2685L1.59009 43.6785L82.0001 72.7185ZM51.5301 47.4185L25.5701 38.2885C23.3701 37.5185 20.9501 36.8585 19.4101 36.5285C21.0297 36.3126 23.3911 35.5668 25.4541 34.9152L25.5701 34.8785L51.5301 25.6385L51.5301 47.4185Z" fill="#FFDADA"/>
<path fill-rule="evenodd" clip-rule="evenodd" d="M82.0001 136.51V122.43H51.9701V105.16L82.0001 91.5196V76.1195L49.0001 91.4095C45.1501 81.9495 37.4501 76.8896 26.6701 76.8896C10.8301 76.8896 1.59009 87.5595 1.59009 105.82L1.59009 136.51H82.0001ZM39.5401 122.43H14.1301V105.82C14.1301 96.9095 18.6401 91.6295 26.6701 91.6295C34.8101 91.6295 39.5401 96.9095 39.5401 105.82V122.43Z" fill="#FFDADA"/>
<path d="M82.0001 149.575V199.515H1.59009L1.59009 149.575H14.5701L14.5701 185.435H35.2501L35.2501 153.315H47.6801L47.6801 185.435H69.0201V149.575H82.0001Z" fill="#FFDADA"/>
<path d="M82.0001 294.531V280.891H53.1801C43.1701 280.891 35.5801 281.001 30.7401 281.771L82.0001 261.421V248.441L30.6301 227.981C36.3501 228.751 41.0801 228.751 57.2501 228.751H82.0001V215.111H1.59008L1.59009 228.971L65.6101 254.931L1.59009 280.891L1.59009 294.531H82.0001Z" fill="#FFDADA"/>
<path fill-rule="evenodd" clip-rule="evenodd" d="M82.0001 360.274V374.904L1.59009 345.864L1.59009 331.454L82.0001 302.414V317.264L63.4101 323.754L63.4101 353.784L82.0001 360.274ZM25.5701 340.474L51.5301 349.604L51.5301 327.824L25.5701 337.064L25.4543 337.101C23.3912 337.752 21.0297 338.498 19.4101 338.714C20.9501 339.044 23.3701 339.704 25.5701 340.474Z" fill="#FFDADA"/>
<path d="M41.85 449.654C67.04 449.654 83.32 434.474 83.32 411.044C83.32 392.014 72.1 377.274 55.16 374.194V388.824C64.07 391.464 69.79 399.824 69.79 410.714C69.79 425.454 58.79 434.914 41.74 434.914C24.58 434.914 13.8 425.564 13.8 410.714C13.8 400.044 19.3 392.014 28.65 389.264L28.65 374.414C11.38 377.164 0.270017 391.354 0.27002 410.384C0.27002 433.924 16.88 449.654 41.85 449.654Z" fill="#FFDADA"/>
</svg>
