<svg width="84" height="750" viewBox="0 0 84 750" fill="none" xmlns="http://www.w3.org/2000/svg">
<path d="M50.3201 41.3138L1.59009 68.4839L1.59009 52.7538L30.8501 36.9139C32.9451 35.7616 34.6411 35.0083 36.508 34.1791L36.7901 34.0538C36.0181 33.6679 35.3465 33.3655 34.6579 33.0555C33.5804 32.5703 32.4605 32.0662 30.8501 31.1938L1.59009 15.4639L1.59008 0.173828L50.3201 27.2339L82.0001 27.2339V41.3138H50.3201Z" fill="#FFDADA"/>
<path d="M83.32 103.87C83.32 127.3 67.04 142.48 41.85 142.48C16.88 142.48 0.270019 126.75 0.270018 103.21C0.270017 84.18 11.38 69.9899 28.65 67.2399L28.65 82.09C19.3 84.84 13.8 92.87 13.8 103.54C13.8 118.39 24.58 127.74 41.74 127.74C58.79 127.74 69.79 118.28 69.79 103.54C69.79 92.65 64.07 84.29 55.16 81.65V67.02C72.1 70.1 83.32 84.8399 83.32 103.87Z" fill="#FFDADA"/>
<path d="M82.0001 219.019V205.159H25.0201L82.0001 167.319V153.459H1.59009L1.59009 167.319H58.5701L1.59009 205.049L1.59009 219.019H82.0001Z" fill="#FFDADA"/>
<path d="M82.0001 232.083V282.023H1.59009L1.59009 232.083H14.5701L14.5701 267.943H35.2501L35.2501 235.823H47.6801L47.6801 267.943H69.0201V232.083H82.0001Z" fill="#FFDADA"/>
<path d="M1.59009 351.746H14.5701L14.5701 328.206H82.0001V314.126H14.5701L14.5701 290.586H1.59009L1.59009 351.746Z" fill="#FFDADA"/>
<path d="M24.0299 411.15C9.94991 411.15 0.159912 399.49 0.159912 382.549C0.15991 366.27 9.1799 355.93 23.6999 355.49V369.57C16.7699 369.9 12.6999 374.849 12.6999 382.77C12.6999 391.46 16.8799 397.07 23.5899 397.07C29.3099 397.07 32.4999 393.99 34.0399 387.28L36.7899 374.63C39.7599 360.88 46.7999 354.169 58.7899 354.169C73.7499 354.169 83.4299 365.83 83.4299 383.54C83.4299 400.7 74.2999 411.919 59.8899 412.25V398.17C66.7099 398.06 70.7799 392.56 70.7799 383.54C70.7799 374.19 66.7099 368.25 59.9999 368.25C54.6099 368.25 51.4199 371 49.9899 377.6L47.1299 390.36C44.1599 404 36.3499 411.15 24.0299 411.15Z" fill="#FFDADA"/>
<path d="M82.0001 422.154H1.59009L1.59009 436.234H82.0001V422.154Z" fill="#FFDADA"/>
<path d="M24.0299 503.751C9.94991 503.751 0.159912 492.091 0.159912 475.151C0.15991 458.871 9.1799 448.531 23.6999 448.091V462.171C16.7699 462.501 12.6999 467.451 12.6999 475.371C12.6999 484.061 16.8799 489.671 23.5899 489.671C29.3099 489.671 32.4999 486.591 34.0399 479.881L36.7899 467.231C39.7599 453.481 46.7999 446.771 58.7899 446.771C73.7499 446.771 83.4299 458.431 83.4299 476.141C83.4299 493.301 74.2999 504.521 59.8899 504.851V490.771C66.7099 490.661 70.7799 485.161 70.7799 476.141C70.7799 466.791 66.7099 460.851 59.9999 460.851C54.6099 460.851 51.4199 463.601 49.9899 470.201L47.1299 482.961C44.1599 496.601 36.3499 503.751 24.0299 503.751Z" fill="#FFDADA"/>
<path d="M82.0001 579.431V565.571H25.0201L82.0001 527.731V513.871H1.59009L1.59009 527.731H58.5701L1.59009 565.461L1.59009 579.431H82.0001Z" fill="#FFDADA"/>
<path fill-rule="evenodd" clip-rule="evenodd" d="M41.7399 590.336C66.1599 590.336 83.3199 606.396 83.3199 629.496C83.3199 652.486 66.2699 668.326 41.7399 668.326C17.3199 668.326 0.159912 652.376 0.159912 629.386C0.159909 606.396 17.2099 590.336 41.7399 590.336ZM41.7399 605.186C24.5799 605.186 13.6899 614.646 13.6899 629.386C13.6899 644.126 24.5799 653.586 41.7399 653.586C58.8999 653.586 69.7899 644.126 69.7899 629.386C69.7899 614.646 58.6799 605.186 41.7399 605.186Z" fill="#FFDADA"/>
<path d="M41.85 749.593C67.04 749.593 83.32 734.413 83.32 710.983C83.32 691.953 72.1 677.213 55.16 674.133V688.763C64.07 691.403 69.79 699.763 69.79 710.653C69.79 725.393 58.79 734.853 41.74 734.853C24.58 734.853 13.8 725.503 13.8 710.653C13.8 699.983 19.3 691.953 28.65 689.203L28.65 674.353C11.38 677.103 0.270017 691.293 0.270018 710.323C0.270019 733.863 16.88 749.593 41.85 749.593Z" fill="#FFDADA"/>
</svg>
