<svg width="84" height="417" viewBox="0 0 84 417" fill="none" xmlns="http://www.w3.org/2000/svg">
<path d="M82 366.913L82 416.853L1.59 416.853L1.59 366.913L14.57 366.913L14.57 402.773L35.25 402.773L35.25 370.653L47.68 370.653L47.68 402.773L69.02 402.773L69.02 366.913L82 366.913ZM82 324.918L82 353.848L1.59 353.848L1.58999 325.688C1.58999 301.928 17.98 285.538 41.96 285.538C65.61 285.538 82 301.598 82 324.918ZM14.57 327.008L14.57 339.768L69.02 339.768L69.02 326.238C69.02 310.178 58.68 300.388 41.96 300.388C24.91 300.388 14.57 310.398 14.57 327.008ZM1.58999 260.542L82 260.542L82 274.622L1.58999 274.622L1.58999 260.542ZM14.57 251.958L1.58999 251.958L1.58999 190.798L14.57 190.798L14.57 214.338L82 214.338L82 228.418L14.57 228.418L14.57 251.958ZM1.58999 168.155L82 168.155L82 182.235L1.58999 182.235L1.58999 168.155ZM82 138.671L82 152.531L1.58999 152.531L1.58999 138.561L58.57 100.831L1.58999 100.831L1.58998 86.971L82 86.971L82 100.831L25.02 138.671L82 138.671ZM13.47 36.1716C13.47 52.1216 25.02 61.2516 42.4 61.2516C60.33 61.2516 70.12 50.9116 70.12 36.0616C70.12 22.0916 62.42 13.6216 49.55 13.6216L49.22 13.6216L49.22 37.9316L36.79 37.9316L36.79 0.531641L82 0.531639L82 12.4116L72.76 13.2916C78.92 17.6916 83.21 26.8216 83.21 37.7116C83.21 60.2616 66.82 75.9916 42.07 75.9916C17.65 75.9916 0.269981 60.0416 0.26998 35.8416C0.269979 17.4716 10.94 3.28164 27.33 0.971642L27.33 15.8216C17.87 18.3516 13.47 26.4916 13.47 36.1716Z" fill="#FFDADA"/>
</svg>
