<svg width="84" height="510" viewBox="0 0 84 510" fill="none" xmlns="http://www.w3.org/2000/svg">
<path d="M82 459.105L82 509.045L1.59 509.045L1.59 459.105L14.57 459.105L14.57 494.965L35.25 494.965L35.25 462.845L47.68 462.845L47.68 494.965L69.02 494.965L69.02 459.105L82 459.105ZM82 432.18L82 446.04L1.59 446.04L1.59 432.07L58.57 394.34L1.58999 394.34L1.58999 380.48L82 380.48L82 394.34L25.02 432.18L82 432.18ZM82 350.8L82 364.88L1.58999 364.88L1.58999 350.8L34.81 350.8L34.81 315.16L1.58999 315.16L1.58999 301.08L82 301.08L82 315.16L47.9 315.16L47.9 350.8L82 350.8ZM82 278.51L82 293.14L1.58999 264.1L1.58999 249.69L82 220.65L82 235.5L63.41 241.99L63.41 272.02L82 278.51ZM25.57 258.71L51.53 267.84L51.53 246.06L25.57 255.3C23.48 255.96 21.06 256.73 19.41 256.95C20.95 257.28 23.37 257.94 25.57 258.71ZM82 198.907L82 212.767L1.58999 212.767L1.58999 198.797L58.57 161.067L1.58998 161.067L1.58998 147.207L82 147.207L82 161.067L25.02 198.907L82 198.907ZM83.32 97.6172C83.32 121.047 67.04 136.227 41.85 136.227C16.88 136.227 0.269979 120.497 0.269978 96.9572C0.269977 77.9272 11.38 63.7372 28.65 60.9872L28.65 75.8372C19.3 78.5872 13.8 86.6172 13.8 97.2872C13.8 112.137 24.58 121.487 41.74 121.487C58.79 121.487 69.79 112.027 69.79 97.2872C69.79 86.3972 64.07 78.0372 55.16 75.3972L55.16 60.7672C72.1 63.8472 83.32 78.5872 83.32 97.6172ZM82 0.400389L82 50.3404L1.58998 50.3404L1.58998 0.400392L14.57 0.400392L14.57 36.2604L35.25 36.2604L35.25 4.14039L47.68 4.14039L47.68 36.2604L69.02 36.2604L69.02 0.400389L82 0.400389Z" fill="#FFDADA"/>
</svg>
