<svg width="150" height="679" viewBox="0 0 84 679" fill="none" xmlns="http://www.w3.org/2000/svg">
<path d="M13.47 638.556C13.47 654.506 25.02 663.636 42.4 663.636C60.33 663.636 70.12 653.296 70.12 638.446C70.12 624.476 62.42 616.006 49.55 616.006L49.22 616.006L49.22 640.316L36.79 640.316L36.79 602.916L82 602.916L82 614.796L72.76 615.676C78.92 620.076 83.21 629.206 83.21 640.096C83.21 662.646 66.82 678.376 42.07 678.376C17.65 678.376 0.269996 662.426 0.269995 638.226C0.269994 619.856 10.94 605.666 27.33 603.356L27.33 618.206C17.87 620.736 13.47 628.876 13.47 638.556ZM82 536.641L82 586.581L1.59 586.581L1.58999 536.641L14.57 536.641L14.57 572.501L35.25 572.501L35.25 540.381L47.68 540.381L47.68 572.501L69.02 572.501L69.02 536.641L82 536.641ZM82 509.716L82 523.576L1.58999 523.576L1.58999 509.606L58.57 471.876L1.58999 471.876L1.58999 458.016L82 458.016L82 471.876L25.02 509.716L82 509.716ZM82 392.477L82 442.417L1.58999 442.417L1.58999 392.477L14.57 392.477L14.57 428.337L35.25 428.337L35.25 396.217L47.68 396.217L47.68 428.337L69.02 428.337L69.02 392.477L82 392.477ZM82 365.332L82 379.412L1.58999 379.412L1.58998 348.722C1.58998 330.462 10.83 319.792 26.67 319.792C37.45 319.792 45.15 324.852 49 334.312L82 319.022L82 334.422L51.97 348.062L51.97 365.332L82 365.332ZM14.13 365.332L39.54 365.332L39.54 348.722C39.54 339.812 34.81 334.532 26.67 334.532C18.64 334.532 14.13 339.812 14.13 348.722L14.13 365.332ZM82 300.99L82 315.62L1.58998 286.58L1.58998 272.17L82 243.13L82 257.98L63.41 264.47L63.41 294.5L82 300.99ZM25.57 281.19L51.53 290.32L51.53 268.54L25.57 277.78C23.48 278.44 21.06 279.21 19.41 279.43C20.95 279.76 23.37 280.42 25.57 281.19ZM14.57 249.485L1.58998 249.485L1.58998 188.325L14.57 188.325L14.57 211.865L82 211.865L82 225.945L14.57 225.945L14.57 249.485ZM1.58998 165.682L82 165.682L82 179.762L1.58998 179.762L1.58998 165.682ZM41.74 76.6875C66.16 76.6875 83.32 92.7475 83.32 115.848C83.32 138.838 66.27 154.678 41.74 154.678C17.32 154.678 0.159974 138.728 0.159973 115.738C0.159972 92.7475 17.21 76.6875 41.74 76.6875ZM41.74 91.5375C24.58 91.5375 13.69 100.998 13.69 115.738C13.69 130.478 24.58 139.938 41.74 139.938C58.9 139.938 69.79 130.478 69.79 115.738C69.79 100.998 58.68 91.5375 41.74 91.5375ZM82 51.923L82 65.783L1.58997 65.783L1.58997 51.813L58.57 14.083L1.58997 14.083L1.58997 0.222987L82 0.222983L82 14.083L25.02 51.923L82 51.923Z" fill="#FFDADA"/>
</svg>
