<svg width="84" height="419" viewBox="0 0 84 419" fill="none" xmlns="http://www.w3.org/2000/svg">
<path d="M82.0001 65.6889V51.8289L25.0201 51.8289L82.0001 13.9889V0.128906L1.59009 0.12891L1.59009 13.9889L58.5701 13.9889L1.59009 51.7189L1.59009 65.6889H82.0001Z" fill="#FFDADA"/>
<path fill-rule="evenodd" clip-rule="evenodd" d="M83.3199 115.753C83.3199 92.6534 66.1599 76.5934 41.7399 76.5934C17.2099 76.5934 0.159909 92.6534 0.159912 115.643C0.159912 138.633 17.3199 154.583 41.7399 154.583C66.2699 154.583 83.3199 138.743 83.3199 115.753ZM13.6899 115.643C13.6899 100.903 24.5799 91.4435 41.7399 91.4435C58.6799 91.4435 69.7899 100.903 69.7899 115.643C69.7899 130.383 58.8999 139.843 41.7399 139.843C24.5799 139.843 13.6899 130.383 13.6899 115.643Z" fill="#FFDADA"/>
<path d="M1.59009 165.587H82.0001V179.667H1.59009L1.59009 165.587Z" fill="#FFDADA"/>
<path d="M1.59009 249.39H14.5701L14.5701 225.85H82.0001V211.77H14.5701L14.5701 188.23H1.59009L1.59009 249.39Z" fill="#FFDADA"/>
<path fill-rule="evenodd" clip-rule="evenodd" d="M41.7399 250.463C66.1599 250.463 83.3199 266.523 83.3199 289.623C83.3199 312.613 66.2699 328.453 41.7399 328.453C17.3199 328.453 0.159912 312.503 0.159912 289.513C0.159909 266.523 17.2099 250.463 41.7399 250.463ZM41.7399 265.313C24.5799 265.313 13.6899 274.773 13.6899 289.513C13.6899 304.253 24.5799 313.713 41.7399 313.713C58.8999 313.713 69.7899 304.253 69.7899 289.513C69.7899 274.773 58.6799 265.313 41.7399 265.313Z" fill="#FFDADA"/>
<path d="M82.0001 418.849V405.209H53.1801C43.1701 405.209 35.5801 405.319 30.7401 406.089L82.0001 385.739V372.759L30.6301 352.299C36.3501 353.069 41.0801 353.069 57.2501 353.069H82.0001V339.429L1.59008 339.429L1.59009 353.289L65.6101 379.249L1.59009 405.209L1.59009 418.849H82.0001Z" fill="#FFDADA"/>
</svg>
