<svg width="84" height="724" viewBox="0 0 84 724" fill="none" xmlns="http://www.w3.org/2000/svg">
<path d="M24.03 722.448C9.95 722.448 0.159997 710.788 0.159997 693.848C0.159996 677.568 9.17999 667.228 23.7 666.788L23.7 680.868C16.77 681.198 12.7 686.148 12.7 694.068C12.7 702.758 16.88 708.368 23.59 708.368C29.31 708.368 32.5 705.288 34.04 698.578L36.79 685.928C39.76 672.178 46.8 665.468 58.79 665.468C73.75 665.468 83.43 677.128 83.43 694.838C83.43 711.998 74.3 723.218 59.89 723.548L59.89 709.468C66.71 709.358 70.78 703.858 70.78 694.838C70.78 685.488 66.71 679.548 60 679.548C54.61 679.548 51.42 682.298 49.99 688.898L47.13 701.658C44.16 715.298 36.35 722.448 24.03 722.448ZM41.74 581.56C66.16 581.56 83.32 597.62 83.32 620.72C83.32 643.71 66.27 659.55 41.74 659.55C17.32 659.55 0.159994 643.6 0.159993 620.61C0.159992 597.62 17.21 581.56 41.74 581.56ZM41.74 596.41C24.58 596.41 13.69 605.87 13.69 620.61C13.69 635.35 24.58 644.81 41.74 644.81C58.9 644.81 69.79 635.35 69.79 620.61C69.79 605.87 58.68 596.41 41.74 596.41ZM52.63 571.205L1.58999 571.205L1.58999 557.125L51.75 557.125C63.3 557.125 69.68 550.855 69.68 539.415C69.68 527.975 63.19 521.595 51.75 521.595L1.58999 521.595L1.58999 507.515L52.63 507.515C71.44 507.515 83.32 519.835 83.32 539.415C83.32 558.885 71.55 571.205 52.63 571.205ZM82 478.536L82 492.396L1.58999 492.396L1.58999 478.426L58.57 440.696L1.58999 440.696L1.58999 426.836L82 426.836L82 440.696L25.02 478.536L82 478.536ZM82 382.307L82 411.237L1.58999 411.237L1.58998 383.077C1.58998 359.317 17.98 342.927 41.96 342.927C65.61 342.927 82 358.987 82 382.307ZM14.57 384.397L14.57 397.157L69.02 397.157L69.02 383.627C69.02 367.567 58.68 357.777 41.96 357.777C24.91 357.777 14.57 367.787 14.57 384.397ZM24.03 336.631C9.94998 336.631 0.15998 324.971 0.15998 308.031C0.159979 291.751 9.17997 281.411 23.7 280.971L23.7 295.051C16.77 295.381 12.7 300.331 12.7 308.251C12.7 316.941 16.88 322.551 23.59 322.551C29.31 322.551 32.5 319.471 34.04 312.761L36.79 300.111C39.76 286.361 46.8 279.651 58.79 279.651C73.75 279.651 83.43 291.311 83.43 309.021C83.43 326.181 74.3 337.401 59.89 337.731L59.89 323.651C66.71 323.541 70.78 318.041 70.78 309.021C70.78 299.671 66.71 293.731 60 293.731C54.61 293.731 51.42 296.481 49.99 303.081L47.13 315.841C44.16 329.481 36.35 336.631 24.03 336.631ZM83.32 235.124C83.32 258.554 67.04 273.734 41.85 273.734C16.88 273.734 0.269976 258.004 0.269975 234.464C0.269974 215.434 11.38 201.244 28.65 198.494L28.65 213.344C19.3 216.094 13.8 224.124 13.8 234.794C13.8 249.644 24.58 258.994 41.74 258.994C58.79 258.994 69.79 249.534 69.79 234.794C69.79 223.904 64.07 215.544 55.16 212.904L55.16 198.274C72.1 201.354 83.32 216.094 83.32 235.124ZM82 184.354L82 198.984L1.58997 169.944L1.58997 155.534L82 126.494L82 141.344L63.41 147.834L63.41 177.864L82 184.354ZM25.57 164.554L51.53 173.684L51.53 151.904L25.57 161.144C23.48 161.804 21.06 162.574 19.41 162.794C20.95 163.124 23.37 163.784 25.57 164.554ZM54.28 86.8212L54.28 104.531L82 104.531L82 118.611L1.58997 118.611L1.58997 86.8212C1.58997 70.6512 12.15 60.2012 27.88 60.2012C43.39 60.2012 54.28 70.7612 54.28 86.8212ZM14.13 89.5712L14.13 104.531L41.74 104.531L41.74 89.7912C41.74 80.1112 36.57 74.9412 27.77 74.9412C18.97 74.9412 14.13 80.2212 14.13 89.5712ZM82 0.617399L82 50.5574L1.58997 50.5574L1.58997 0.617403L14.57 0.617402L14.57 36.4774L35.25 36.4774L35.25 4.3574L47.68 4.3574L47.68 36.4774L69.02 36.4774L69.02 0.6174L82 0.617399Z" fill="#FFDADA"/>
</svg>
